<?xml version="1.0" standalone="no"?>
<!DOCTYPE svg PUBLIC "-//W3C//DTD SVG 20010904//EN"
 "http://www.w3.org/TR/2001/REC-SVG-20010904/DTD/svg10.dtd">
<svg version="1.0" xmlns="http://www.w3.org/2000/svg"
 width="231.000000pt" height="182.000000pt" viewBox="0 0 231.000000 182.000000"
 preserveAspectRatio="xMidYMid meet">
<metadata>
Created by potrace 1.10, written by Peter Selinger 2001-2011
</metadata>
<g transform="translate(0.000000,182.000000) scale(0.100000,-0.100000)"
fill="#000000" stroke="none">
<path fill="#FFFFFF" d="M470 1544 c-220 -58 -358 -235 -376 -478 -12 -162 42 -314 149 -420
105 -106 217 -150 382 -148 230 1 396 109 474 310 l21 52 -145 0 c-112 0 -145
-3 -145 -13 0 -18 -67 -81 -110 -103 -24 -12 -57 -18 -105 -18 -59 0 -79 4
-123 29 -94 51 -142 145 -142 275 0 103 23 164 83 224 73 73 167 95 270 64 39
-12 120 -78 128 -106 3 -10 38 -12 147 -10 l143 3 -41 83 c-67 133 -173 220
-315 257 -74 19 -222 19 -295 -1z"/>
<path fill="#10B981" d="M1613 1545 c-242 -66 -391 -281 -378 -550 13 -281 206 -478 491 -501
220 -17 428 98 519 287 34 71 35 77 35 191 l0 117 -280 3 -280 3 0 -98 0 -98
160 3 c88 2 160 -1 160 -5 0 -16 -33 -73 -59 -100 -89 -97 -283 -102 -389 -11
-52 44 -77 91 -92 174 -30 168 47 315 186 356 100 29 210 2 267 -66 l26 -30
141 0 141 0 -6 23 c-18 58 -73 143 -126 191 -100 93 -195 126 -359 125 -58 0
-129 -7 -157 -14z"/>
</g>
</svg>
